<svg id="Capa_1" data-name="Capa 1" xmlns="http://www.w3.org/2000/svg" viewBox="0 0 45.95 50"><defs><style>.cls-1{fill:#fff;}</style></defs><title>Bolso</title><path class="cls-1" d="M37.87,14c2.5,0,4.6-.09,6.69.06a2,2,0,0,1,1.51,1.2c1,11.34,2,22.68,2.92,34a2.9,2.9,0,0,1-.13.63c-0.54,0-1.13.12-1.72,0.12H7.55C2.89,50,2.8,50,3.2,45.38c0.68-7.76,1.5-15.51,2.25-23.26,0.19-2,.33-4,0.5-6.06a1.47,1.47,0,0,1,0-.46c1.54-3.34,4.45-1,6.66-1.54,1.56-.39,1.57.9,1.51,2.12-0.09,1.94-.18,3.62-1.66,5.32-1.84,2.09.54,5.14,4.12,5a7.1,7.1,0,0,0,4.65-2c1.06-1.17-.33-2.72-0.94-4.16-0.73-1.72-.42-3.9-0.44-5.88a2.26,2.26,0,0,1,1.4-.5c3.2,0,6.4,0,9.61,0,1.4,0,1.78.67,1.6,1.91-0.27,1.93.24,3.93-1.62,5.59a2.44,2.44,0,0,0,.57,3.88,6.71,6.71,0,0,0,6.48.77c1.87-.79,2.86-2.94,1.5-4.37C37.15,19.38,38.36,16.79,37.87,14Z" transform="translate(-3.05 0)"/><path class="cls-1" d="M36.3,14.73c0,1.48,0,3,0,4.45,0,1.17,0,2.18,1.42,2.56a1.54,1.54,0,0,1,.76.65c-0.4.76-.83,2-1.36,2.1a26.29,26.29,0,0,1-4.81-.35c0.2-.81.35-1.63,0.62-2.41s1-1.61,1-2.41c0-3.5-.09-7-0.37-10.5s-3.44-6-7.15-6.23c-3.45-.18-7.41,2.49-7.9,6a90.79,90.79,0,0,0-.4,11.65,2.37,2.37,0,0,0,1.05,1.33c1.4,1.08,1.43,2.31-.23,2.86a7.37,7.37,0,0,1-4,.09c-1.45-.39-1.49-1.46-0.52-2.72a5.73,5.73,0,0,0,1.24-2.94c0.2-3.26,0-6.54.26-9.79C16.2,4.74,18.92,2,22.87.63A9.82,9.82,0,0,1,33.46,3.07c1.51,1.5,2.13,4.09,2.68,6.31,0.42,1.69.08,3.57,0.08,5.36H36.3Z" transform="translate(-3.05 0)"/></svg>