<svg id="Capa_1" data-name="Capa 1" xmlns="http://www.w3.org/2000/svg" viewBox="0 0 49.29 49.08"><defs><style>.cls-1{fill:#fff;}</style></defs><title>Compras</title><path class="cls-1" d="M49.61,10.61a2.55,2.55,0,0,0,0-.45c0-.2,0-0.4-0.05-0.6a1.7,1.7,0,0,0-1.85-1.12q-10.8,0-21.6,0H12.51A0.47,0.47,0,0,1,12,8Q11.3,4.87,10.58,1.77A1.55,1.55,0,0,0,8.88.3H2.13A1.57,1.57,0,0,0,.41,1.37h0a2.27,2.27,0,0,0,0,.75c0,0.25.14,0.46,0.18,0.71a1.77,1.77,0,0,0,1.69.75c1.8,0,3.59,0,5.39,0a0.49,0.49,0,0,1,.55.49c0.71,3.18,1.44,6.36,2.16,9.54l3,13q0.91,4,1.83,8c0.27,1.17.7,1.55,1.75,1.55H42.32c1.09,0,1.55-.41,1.83-1.63l1.92-8.46,2.78-12.22,0.73-3.22h0v0ZM25.55,11.77H33.7c0,0.5,0,1,0,1.44q0,1.49,0,3c0,0.21,0,.42-0.26.42l-7.76,0a0.47,0.47,0,0,1-.13-0.05V11.77ZM13.89,16.34c-0.33-1.51-.69-3-1-4.57h9.81v4.82l-0.44,0H14.35C14.16,16.6,14,16.66,13.89,16.34Zm1.88,8.21c-0.37-1.53-.71-3.07-1.06-4.64h7.94v4.84l-0.39,0c-2,0-4.09,0-6.13,0A0.44,0.44,0,0,1,15.77,24.55Zm6.57,8.37c-1.46,0-2.91,0-4.37,0a0.47,0.47,0,0,1-.36-0.26c-0.35-1.44-.67-2.9-1-4.35a1.25,1.25,0,0,1,0-.24h6.07c0,0.83,0,1.61,0,2.39s0,1.37,0,2.05C22.7,32.8,22.63,32.93,22.35,32.93Zm11,0h-7.5c-0.26,0-.34-0.1-0.33-0.39,0-1.37,0-2.74,0-4.11,0-.35.11-0.42,0.39-0.42,1.24,0,2.47,0,3.71,0h0c1.24,0,2.47,0,3.71,0,0.28,0,.39.08,0.38,0.42,0,1.35,0,2.71,0,4.06C33.71,32.81,33.63,32.93,33.35,32.93Zm0-8.15c-2.47,0-4.94,0-7.42,0-0.2,0-.38,0-0.38-0.33,0-1.44,0-2.89,0-4.33a1.47,1.47,0,0,1,0-.21h8.11c0,0.14,0,.27,0,0.4,0,1.34,0,2.68,0,4C33.72,24.65,33.64,24.78,33.32,24.78ZM42.23,30c-0.19.83-.39,1.67-0.57,2.5a0.4,0.4,0,0,1-.46.4q-2.13,0-4.26,0c-0.31,0-.4-0.1-0.4-0.46,0-1.32,0-2.65,0-4,0-.14,0-0.29,0-0.45h6.09C42.51,28.75,42.37,29.39,42.23,30Zm1.23-5.49a0.45,0.45,0,0,1-.36.22c-0.78,0-1.56,0-2.34,0H36.93c-0.18,0-.38.05-0.37-0.29,0-1.47,0-2.95,0-4.42a0.66,0.66,0,0,1,0-.15h7.92C44.16,21.5,43.82,23,43.46,24.55Zm1.87-8.21a0.4,0.4,0,0,1-.28.26c-2.78,0-5.57,0-8.35,0l-0.11,0V11.78h9.79C46,13.32,45.69,14.83,45.33,16.34Z" transform="translate(-0.35 -0.3)"/><path class="cls-1" d="M25.21,43.42c0,3.27-2.31,5.94-5.17,6s-5.2-2.67-5.21-5.93,2.32-5.94,5.18-6S25.21,40.16,25.21,43.42ZM20,46.1a2.68,2.68,0,0,0,0-5.31A2.68,2.68,0,0,0,20,46.1Z" transform="translate(-0.35 -0.3)"/><path class="cls-1" d="M42.59,43.42c0,3.28-2.33,5.95-5.21,6s-5.16-2.69-5.17-5.92,2.35-6,5.22-6S42.58,40.19,42.59,43.42Zm-5.14-2.65a2.52,2.52,0,0,0-2.39,2.61,2.55,2.55,0,0,0,2.29,2.72,2.5,2.5,0,0,0,2.38-2.61A2.55,2.55,0,0,0,37.45,40.78Z" transform="translate(-0.35 -0.3)"/></svg>