<svg id="Capa_1" data-name="Capa 1" xmlns="http://www.w3.org/2000/svg" viewBox="0 0 41.08 47.26"><defs><style>.cls-1{fill:#fff;}</style></defs><title>Empleado</title><path class="cls-1" d="M25.58,48.83H7.42a2.26,2.26,0,0,1-2.28-1.15A1.52,1.52,0,0,1,5,47.12q0-7.19,0-14.39C5,29.67,7.8,26.91,11.69,26c2.81-.64,5.61-1.32,8.41-2,0.26-.06.38-0.14,0.37-0.37,0-.57,0-1.14,0-1.71a0.55,0.55,0,0,0-.24-0.4,6.15,6.15,0,0,1-2.9-3.94c0-.22-0.19-0.23-0.42-0.24-2.11-.06-3.57-1.24-3.49-2.81A2.17,2.17,0,0,1,14.3,13a0.61,0.61,0,0,0,.27-0.53q0-1.23,0-2.47c0.06-4.13,3.82-7.54,9.15-8.3C29.52,0.88,35.41,4,36.34,8.42a21.39,21.39,0,0,1,.2,3.28,1.49,1.49,0,0,1,0,.25,1.45,1.45,0,0,0,.51,1.29,2,2,0,0,1,.3,2.66,3.5,3.5,0,0,1-3,1.49,0.44,0.44,0,0,0-.54.39A6.06,6.06,0,0,1,31,21.52a0.55,0.55,0,0,0-.32.51c0,0.54,0,1.08,0,1.61,0,0.25.1,0.35,0.4,0.42l8.33,2c4,0.94,6.71,3.66,6.71,6.88q0,7.05,0,14.1c0,1.17-.87,1.84-2.43,1.84H25.58Zm12.17-1.14c0-.1,0-0.16,0-0.23q0-10.2,0-20.39a0.34,0.34,0,0,0-.35-0.35c-0.78-.17-1.57-0.34-2.34-0.55a0.61,0.61,0,0,0-.8.25c-1.09,1.48-2.2,2.95-3.31,4.42a0.9,0.9,0,0,1-1.33.22l-1.15-.6c-0.19.37-.38,0.7-0.51,1a1.15,1.15,0,0,0-.08.58c0.07,0.46.18,0.92,0.27,1.37,0.71,3.49,1.42,7,2.11,10.46a0.82,0.82,0,0,1-.19.65c-0.8.94-1.64,1.85-2.47,2.77-0.09.11-.17,0.22-0.28,0.35h10.4ZM13.44,26.79V47.68H23.77l-0.25-.3c-0.82-.91-1.63-1.83-2.46-2.74a0.84,0.84,0,0,1-.24-0.8C21.6,40,22.35,36.2,23.18,32.38a3.36,3.36,0,0,0-.55-1.93l-1.25.66a0.88,0.88,0,0,1-1.19-.21c-0.24-.31-0.47-0.62-0.7-0.93-0.92-1.22-1.84-2.45-2.77-3.67a0.51,0.51,0,0,0-.35-0.19C15.38,26.32,14.41,26.56,13.44,26.79ZM18.74,12a1.48,1.48,0,0,0,0,.19q0,2.26,0,4.52a4,4,0,0,0,.52,1.94c1.21,2.24,4.26,3.52,7.47,3.15,3-.35,5.5-2.35,5.66-4.72,0.12-1.76,0-3.52,0-5.28a0.32,0.32,0,0,0-.09-0.23L30,9.64a15.89,15.89,0,0,1-5.35,1.84A38.7,38.7,0,0,1,18.74,12Zm-1.51,0c0-.14,0-0.26,0-0.38,0-.64.21-0.8,1.06-0.8a33.63,33.63,0,0,0,6-.51A12.91,12.91,0,0,0,29.45,8.5a0.92,0.92,0,0,1,1.28.06c0.81,0.69,1.61,1.39,2.45,2.07a1.31,1.31,0,0,1,.72,1.3,0.38,0.38,0,0,0,0,.16l1.2,0.07a26.56,26.56,0,0,0-.2-3.34c-0.57-3.16-4-5.63-8.18-6.06-4-.41-8.13,1.35-9.86,4.22-1,1.65-.86,3.39-0.83,5.12a0.14,0.14,0,0,0,0,.05Zm-5.3,15.06-0.49.14c-3,.92-4.92,3.09-4.92,5.55q0,7.08,0,14.17c0,0.52.24,0.7,0.93,0.7,1.36,0,2.72,0,4.07,0,0.37,0,.43-0.09.43-0.35q0-9.84,0-19.67C11.93,27.53,11.93,27.36,11.93,27.15ZM39.28,47.7h4.46c0.63,0,.87-0.19.87-0.68,0-1.2,0-2.4,0-3.6,0-3.51,0-7,0-10.53,0-2.27-1.32-4-3.85-5.2-0.45-.21-0.95-0.36-1.47-0.55V47.7Zm-13.73-.07,0.28-.3c0.92-1,1.84-2.06,2.77-3.08a0.6,0.6,0,0,0,.16-0.59c-0.25-1.16-.48-2.33-0.72-3.5-0.52-2.54-1-5.08-1.55-7.62a0.32,0.32,0,0,0-.41-0.28c-0.34,0-.69,0-1,0s-0.38,0-.42.27Q23.53,38,22.4,43.42a1.09,1.09,0,0,0,.32,1.08C23.68,45.51,24.58,46.56,25.55,47.64Zm0-20.29,0.36-.29c0.82-.73,1.6-1.48,2.48-2.17a1.66,1.66,0,0,0,.78-1.66,5.08,5.08,0,0,1,0-.8,11,11,0,0,1-7.22,0c0,0.52,0,1,0,1.46a0.82,0.82,0,0,0,.25.5c0.46,0.45,1,.87,1.45,1.3Zm-1.1.78-0.29-.28c-0.89-.78-1.81-1.54-2.65-2.35a1.17,1.17,0,0,0-1.35-.3c-0.68.21-1.41,0.35-2.16,0.53l3.12,4.15Zm2.22,0L30,29.87l3.12-4.15c-0.83-.2-1.63-0.37-2.4-0.58a0.77,0.77,0,0,0-.91.19,5.94,5.94,0,0,1-.64.58Zm7.23-14.86c0,1,0,1.9,0,2.84a0.41,0.41,0,0,0,.3.16A2,2,0,0,0,36,15.45a1.16,1.16,0,0,0-.15-1.58A2.25,2.25,0,0,0,33.89,13.26Zm-16.68,0a2.2,2.2,0,0,0-2,.65,1.22,1.22,0,0,0,0,1.69,2.2,2.2,0,0,0,2,.61V13.28Zm8.34,17.89c1,0,1,0,1.35-.7s0.33-.67-0.45-1.09a1.32,1.32,0,0,0-1.8,0c-0.77.41-.77,0.41-0.44,1.06S24.56,31.16,25.55,31.16Z" transform="translate(-5.02 -1.57)"/></svg>