<svg id="Capa_1" data-name="Capa 1" xmlns="http://www.w3.org/2000/svg" viewBox="0 0 26.45 50"><defs><style>.cls-1{fill:#fff;}</style></defs><title>Ventas</title><path class="cls-1" d="M25.83,50H20.35a4.94,4.94,0,0,1-.12-0.75q0-2.13,0-4.27a0.38,0.38,0,0,0-.38-0.45,18.68,18.68,0,0,1-5.6-1.81,16.73,16.73,0,0,1-4.28-3,0.91,0.91,0,0,1-.15-1.39q1.38-1.83,2.78-3.65a0.92,0.92,0,0,1,1.49-.14,15.77,15.77,0,0,0,4,2.62A11.42,11.42,0,0,0,24,38.21a6.12,6.12,0,0,0,3.79-1.75,3.79,3.79,0,0,0,.39-4.73,6.26,6.26,0,0,0-2.41-1.88c-2.21-1-4.45-1.92-6.67-2.89a18.12,18.12,0,0,1-6.51-4.25,9.19,9.19,0,0,1-2.35-6.49,10,10,0,0,1,4.57-8.3,12.62,12.62,0,0,1,4.91-2.11,0.54,0.54,0,0,0,.51-0.66c0-1.41,0-2.82,0-4.23A4.92,4.92,0,0,1,20.44,0h5.23a3.55,3.55,0,0,1,.22.83c0,1.46,0,2.92,0,4.39a0.34,0.34,0,0,0,.31.41c1.29,0.3,2.59.57,3.85,1a13,13,0,0,1,4.44,2.55,1.07,1.07,0,0,1,.3,1.73l-2,3.62a1,1,0,0,1-1.65.34,13.16,13.16,0,0,0-6-2.8,8.12,8.12,0,0,0-5.81,1,3.67,3.67,0,0,0-1.34,5,5.79,5.79,0,0,0,2.55,2.16c1.6,0.75,3.23,1.43,4.87,2.09a34,34,0,0,1,6,2.84,10.34,10.34,0,0,1,3.24,3A9.64,9.64,0,0,1,36,34,10.71,10.71,0,0,1,33,41a11.93,11.93,0,0,1-6.78,3.57,0.33,0.33,0,0,0-.33.39q0,1.63,0,3.26C25.89,48.8,25.85,49.4,25.83,50Z" transform="translate(-9.58)"/></svg>