<svg id="Capa_1" data-name="Capa 1" xmlns="http://www.w3.org/2000/svg" viewBox="0 0 50 50.09"><defs><style>.cls-1{fill:#fff;}</style></defs><title>Cliente</title><path class="cls-1" d="M25,50.08H0.65C0,50.08,0,50.08,0,49.47c0.08-4.61,2.49-7.84,6.76-9.86,2.2-1,4.53-1.85,6.78-2.8a22.4,22.4,0,0,0,2.6-1.3,2.75,2.75,0,0,0,1.59-2.59c0-.93,0-1.86,0-2.79a0.76,0.76,0,0,0-.16-0.52,8.71,8.71,0,0,1-2.12-3.75,4.68,4.68,0,0,1-.19-0.73,1.55,1.55,0,0,0-1-1.32,2.36,2.36,0,0,1-1-1.32,15.1,15.1,0,0,1-.59-2.75,2.46,2.46,0,0,1,.6-1.86,1,1,0,0,0,.17-1,22.41,22.41,0,0,1-.77-7.11,9.62,9.62,0,0,1,3-6.77,10.91,10.91,0,0,1,5-2.53A16.55,16.55,0,0,1,27.8.29,6,6,0,0,1,31.12,2a1,1,0,0,0,.46.24,7.14,7.14,0,0,1,5.83,6.28,19.32,19.32,0,0,1-.86,8.67,0.67,0.67,0,0,0,0,.52,3.88,3.88,0,0,1,.49,3.66,7.09,7.09,0,0,1-.76,1.78,2.5,2.5,0,0,1-1,.84,0.88,0.88,0,0,0-.48.76,11.6,11.6,0,0,1-1.71,4.1,1,1,0,0,1-.23.31,1.61,1.61,0,0,0-.59,1.68c0,0.83.07,1.67,0.07,2.5a1.71,1.71,0,0,0,.7,1.45,14.94,14.94,0,0,0,2.57,1.59c2,0.89,4.11,1.65,6.16,2.5a15.55,15.55,0,0,1,5.48,3.56A10.38,10.38,0,0,1,50,49.79c0,0.33-.23.29-0.44,0.29H25ZM2.79,47.68H47a0.75,0.75,0,0,0,0-.21c-0.06-.26-0.13-0.52-0.21-0.78a7.72,7.72,0,0,0-4.35-4.76c-2-1-4.16-1.77-6.26-2.62A16.81,16.81,0,0,1,31.79,37a4.49,4.49,0,0,1-2-3.65c0-1.46,0-2.93,0-4.39a0.93,0.93,0,0,1,.3-0.52,8.42,8.42,0,0,0,.79-0.76A9.71,9.71,0,0,0,32.63,23a0.56,0.56,0,0,1,.7-0.62,0.87,0.87,0,0,0,1-.63,12.09,12.09,0,0,0,.45-1.92A1.07,1.07,0,0,0,34,18.61a0.5,0.5,0,0,1-.32-0.78,4.48,4.48,0,0,0,.16-0.45A20.44,20.44,0,0,0,35.05,10a7.53,7.53,0,0,0-.75-3.06,4.86,4.86,0,0,0-4.13-2.6,0.68,0.68,0,0,1-.45-0.21,3.4,3.4,0,0,0-2.49-1.51,13.73,13.73,0,0,0-7,.43,6.64,6.64,0,0,0-4.32,3.8,9.66,9.66,0,0,0-.75,3.4,23,23,0,0,0,1,7.5,0.61,0.61,0,0,1-.36.88,1,1,0,0,0-.67,1.17,13,13,0,0,0,.47,2,0.86,0.86,0,0,0,1,.62,0.54,0.54,0,0,1,.68.59,9.37,9.37,0,0,0,1.29,4A3.39,3.39,0,0,0,20,28.47a0.58,0.58,0,0,1,.25.45c0,1.62-.07,3.24-0.08,4.86a3.5,3.5,0,0,1-1.1,2.41,9.14,9.14,0,0,1-1.44,1.23,20.64,20.64,0,0,1-4.56,2.13A38.22,38.22,0,0,0,7.31,42,8.33,8.33,0,0,0,3.7,45.38C3.35,46.1,3.11,46.86,2.79,47.68Z" transform="translate(0 0)"/></svg>