<svg id="Capa_1" data-name="Capa 1" xmlns="http://www.w3.org/2000/svg" viewBox="0 0 50 49.81"><defs><style>.cls-1{fill:#fff;}</style></defs><title>Estadistica</title><path class="cls-1" d="M0.11,28c-0.48-1.69.61-2.86,2.28-4A226.57,226.57,0,0,1,36,4.11c1-.48,1.32-0.88.82-1.9C36,0.47,36.45-.1,38.52,0c3,0.16,6.05.38,9.08,0.61A4.52,4.52,0,0,1,49.16,1a1.11,1.11,0,0,1,.59,1.76c-1.7,2.59-3.4,5.19-5.15,7.75-0.61.89-1.41,0.86-2.23,0.07-1.67-1.63-1.67-1.64-3.93-.6A226.08,226.08,0,0,0,3.27,30.15,13.06,13.06,0,0,1,.7,31.21C0.51,30.4.3,29.6,0.12,28.78A5.23,5.23,0,0,1,.11,28Z" transform="translate(0 0)"/><path class="cls-1" d="M39.42,31.44c0-5,0-10.05,0-15.08,0-2.24.92-3,3.39-3.07,4.72,0,5.12.32,5.12,4.64q0,14.08,0,28.16c0,3-.8,3.7-4.12,3.71H43c-2.66,0-3.62-.84-3.63-3.29,0-5,0-10.05,0-15.08h0.05Z" transform="translate(0 0)"/><path class="cls-1" d="M26.72,36c0-3.49,0-7,0-10.46,0-2.07,1-3,3.34-3,4.79-.05,5.18.31,5.19,4.69q0,9.59,0,19.18c0,2.37-.92,3.22-3.52,3.24h-1.9c-2.21,0-3.15-.89-3.16-2.89,0-3.57,0-7.14,0-10.71h0Z" transform="translate(0 0)"/><path class="cls-1" d="M22.6,38.95c0,2.53,0,5.07,0,7.6,0,2.25-.9,3.05-3.39,3.08-0.82,0-1.63,0-2.45,0-1.66-.09-2.73-1-2.75-2.54,0-5.48,0-11,0-16.45a2.44,2.44,0,0,1,2.44-2.41,22.56,22.56,0,0,1,3.67,0,2.45,2.45,0,0,1,2.45,2.64C22.62,33.55,22.6,36.25,22.6,38.95Z" transform="translate(0 0)"/><path class="cls-1" d="M10.33,41.18c0,1.87,0,3.74,0,5.6s-1,2.77-3,2.85c-1,0-2,0-3,0-1.54-.08-2.53-0.86-2.55-2.26q-0.11-6.22,0-12.45c0-1.42,1.1-2.23,2.68-2.3,0.95,0,1.9,0,2.86,0,1.9,0.07,2.94,1,3,2.74C10.36,37.28,10.33,39.23,10.33,41.18Z" transform="translate(0 0)"/></svg>